Coordinates
version=1
nRows=16
nColumns=40
inDegrees=yes

Units are S.I. units (second, meters, Newtons, ...)
Angles are in degrees.

endheader
time	pelvis_tilt	pelvis_list	pelvis_rotation	pelvis_tx	pelvis_ty	pelvis_tz	hip_flexion_r	hip_adduction_r	hip_rotation_r	knee_angle_r	knee_angle_r_beta	ankle_angle_r	subtalar_angle_r	mtp_angle_r	hip_flexion_l	hip_adduction_l	hip_rotation_l	knee_angle_l	knee_angle_l_beta	ankle_angle_l	subtalar_angle_l	mtp_angle_l	lumbar_extension	lumbar_bending	lumbar_rotation	arm_flex_r	arm_add_r	arm_rot_r	elbow_flex_r	pro_sup_r	wrist_flex_r	wrist_dev_r	arm_flex_l	arm_add_l	arm_rot_l	elbow_flex_l	pro_sup_l	wrist_flex_l	wrist_dev_l
     15.84750000	     -2.22520193	     -4.31206206	      0.63689379	      1.12891191	      0.91595869	      0.45356635	     23.91498310	     -0.38230680	    -15.20849756	     25.77202336	     25.77202336	      6.22835777	     -4.01710362	     -2.63967277	      0.43076396	    -10.65710264	     -9.15989801	     39.71902742	     39.71902742	     12.64251764	    -16.67832705	     -5.73415483	     -9.07048305	      6.87996205	      1.09967855	    -16.75759025	    -11.35400481	    -15.01370975	     20.31146702	     47.44854815	      0.00000000	      0.00000000	     20.08877558	    -16.31557754	     -6.76212273	     96.64578044	     47.84087548	      0.00000000	      0.00000000
     15.85857143	     -2.09994633	     -4.48602113	      1.01814616	      1.12944890	      0.91793414	      0.45517628	     22.78672386	     -0.14975839	    -15.76317513	     25.25318794	     25.25318794	      6.79255311	     -3.56294284	     -2.76112028	      2.19673876	    -11.30221199	     -8.15455809	     43.45516210	     43.45516210	     11.03005204	    -17.72372669	     -5.07022380	     -9.24912393	      7.05647294	      1.26130000	    -15.42074096	    -11.33223212	    -14.93888226	     20.80576371	     47.43094453	      0.00000000	      0.00000000	     18.98831696	    -15.61816024	     -6.27798833	     95.96006118	     47.79816429	      0.00000000	      0.00000000
     15.86964286	     -2.13706246	     -4.41397262	      1.44243355	      1.12960699	      0.91980185	      0.45622788	     21.80138643	     -0.30552271	    -16.64560959	     24.68087824	     24.68087824	      7.34185812	     -2.36481358	     -3.05856232	      4.53131558	    -11.32328929	     -6.57332293	     47.65858094	     47.65858094	     12.11438918	    -18.05135490	      2.49695392	     -9.17879514	      7.02460175	      1.32890843	    -14.03441492	    -11.38264754	    -14.53580501	     21.21277637	     47.37142894	      0.00000000	      0.00000000	     18.02324106	    -14.97211011	     -5.84052259	     94.01543535	     47.78436238	      0.00000000	      0.00000000
     15.88071429	     -2.05025669	     -4.60539171	      1.87557035	      1.12967264	      0.92162091	      0.45752220	     20.68211358	      0.00599791	    -17.11899442	     24.00606541	     24.00606541	      7.70541250	     -2.12069104	     -3.04954910	      6.51230426	    -11.87269292	     -5.62460504	     51.06161334	     51.06161334	     10.93981573	    -18.57363444	      3.09224292	     -9.35526956	      7.19684089	      1.48854529	    -12.50252850	    -11.44947371	    -14.46083732	     21.83869201	     47.34972855	      0.00000000	      0.00000000	     16.81164512	    -14.20072694	     -5.22665185	     93.18725039	     47.72893709	      0.00000000	      0.00000000
     15.89178571	     -2.11267370	     -4.82537459	      2.33274793	      1.12947511	      0.92312817	      0.45861599	     19.66919189	      0.34517657	    -17.70278216	     23.16588203	     23.16588203	      7.97081476	     -1.71291353	     -3.04237328	      8.78734999	    -12.33989960	     -4.57732201	     54.33117183	     54.33117183	     10.40619720	    -18.85024125	      4.45528797	     -9.27480340	      7.44749640	      1.46046960	    -10.92638272	    -11.59798804	    -14.36297102	     22.52178083	     47.32272577	      0.00000000	      0.00000000	     15.54852953	    -13.71324669	     -4.66201975	     91.63969584	     47.66464956	      0.00000000	      0.00000000
     15.90285714	     -2.13704857	     -4.79111470	      2.76757371	      1.12906418	      0.92469823	      0.45941890	     18.69352846	      0.39144744	    -18.17365791	     22.46678998	     22.46678998	      8.18381301	     -1.29655908	     -3.42764985	     11.24682112	    -12.18275969	     -3.23378401	     57.70644016	     57.70644016	     12.59263304	    -18.81194322	     12.86942933	     -9.25650302	      7.45275488	      2.02203989	     -9.58584856	    -11.76764278	    -13.64900776	     23.27318392	     47.21159043	      0.00000000	      0.00000000	     15.20575814	    -12.82422035	     -3.65333832	     88.09634696	     47.58438290	      0.00000000	      0.00000000
     15.91392857	     -2.15309608	     -4.97500935	      3.19233690	      1.12860177	      0.92605306	      0.46055635	     17.69929026	      0.77933405	    -18.50270670	     21.66966285	     21.66966285	      8.34855483	     -1.23780318	     -3.34770107	     13.42936993	    -12.53168907	     -2.43926565	     60.15506590	     60.15506590	     12.29877338	    -18.97183639	     13.36262263	     -9.29813771	      7.60085725	      1.95243165	     -7.72575005	    -11.94759506	    -13.48335199	     24.23050416	     47.16527745	      0.00000000	      0.00000000	     13.88832722	    -12.48864971	     -3.00485028	     86.28060440	     47.51190394	      0.00000000	      0.00000000
     15.92500000	     -2.18972755	     -5.10993340	      3.64538384	      1.12803226	      0.92721363	      0.46154752	     16.77200334	      1.12693464	    -18.70240379	     20.92696422	     20.92696422	      8.47837584	     -1.39864191	     -3.55424010	     15.70018757	    -12.66381086	     -1.52133899	     62.33201877	     62.33201877	     12.85119361	    -19.04373052	     15.57937347	     -9.26700875	      7.72841047	      2.50786140	     -6.25208364	    -12.25615224	    -12.73614908	     25.10446538	     47.05034949	      0.00000000	      0.00000000	     13.40439503	    -11.65364682	     -1.99025530	     82.86154130	     47.42407159	      0.00000000	      0.00000000
     15.93607143	     -2.25094616	     -5.30105461	      4.03741820	      1.12736253	      0.92816113	      0.46271279	     15.89975618	      1.55344564	    -18.90550310	     20.19924992	     20.19924992	      8.64838881	     -1.45434735	     -3.46036075	     17.91745815	    -12.95164977	     -0.90276161	     63.98119610	     63.98119610	     12.77570182	    -19.10790780	     15.55594913	     -9.24900762	      7.85611281	      2.47103188	     -4.24498142	    -12.45909528	    -12.61262819	     26.05214894	     47.01272794	      0.00000000	      0.00000000	     12.07060155	    -11.38163655	     -1.42039488	     80.93875276	     47.35052082	      0.00000000	      0.00000000
     15.94714286	     -2.23460946	     -5.39882430	      4.41179323	      1.12663975	      0.92920973	      0.46382486	     14.96353163	      1.94356768	    -18.82534083	     19.47069772	     19.47069772	      8.71366263	     -1.91499651	     -3.52949072	     19.96511560	    -13.06277728	     -0.35131417	     65.13862449	     65.13862449	     13.08240860	    -19.12695712	     16.27286149	     -9.27675501	      7.89728333	      2.86809801	     -2.35925823	    -12.78965967	    -11.94375353	     26.80524479	     46.92658645	      0.00000000	      0.00000000	     11.71556899	    -10.67432555	     -0.67398110	     76.59298375	     47.24805886	      0.00000000	      0.00000000
     15.95821429	     -2.25753008	     -5.51707064	      4.81593074	      1.12580276	      0.93002272	      0.46489055	     14.09086124	      2.31226147	    -18.94854395	     18.78132057	     18.78132057	      8.86216435	     -2.09615637	     -3.48428772	     22.00717643	    -13.16478051	      0.14350528	     65.82400244	     65.82400244	     13.19899085	    -19.13578441	     16.27588776	     -9.30464103	      7.91508831	      2.80857536	     -0.20147962	    -13.03478314	    -11.71346809	     27.84648263	     46.87592914	      0.00000000	      0.00000000	     10.54205893	    -10.45870400	     -0.03574697	     73.98169475	     47.16175369	      0.00000000	      0.00000000
     15.96928571	     -2.25077649	     -5.58005610	      5.18715385	      1.12492002	      0.93078302	      0.46584699	     13.22538817	      2.64405186	    -18.88038551	     18.14097690	     18.14097690	      8.93441574	     -2.52185664	     -3.66888045	     23.90060105	    -13.17762748	      0.51217692	     66.02628634	     66.02628634	     13.36301423	    -19.11850440	     16.46452867	     -9.31643318	      7.91293331	      3.43888023	      1.58929304	    -13.52480790	    -10.84972913	     28.72777724	     46.76635220	      0.00000000	      0.00000000	     10.43157382	     -9.69251490	      0.83380720	     69.14146406	     47.04620503	      0.00000000	      0.00000000
     15.98035714	     -2.22843285	     -5.63437092	      5.59782205	      1.12395692	      0.93140795	      0.46667995	     12.35661460	      2.92862620	    -18.98591277	     17.54617154	     17.54617154	      9.14890969	     -2.67197014	     -3.62270483	     25.67743383	    -13.13696130	      0.83680311	     65.74573373	     65.74573373	     13.39805742	    -19.10959406	     16.38370269	     -9.40652244	      7.86112081	      3.19000993	      3.95622604	    -13.75762337	    -10.71119629	     29.93589044	     46.71988744	      0.00000000	      0.00000000	      9.09943696	     -9.65397722	      1.35618432	     66.63491754	     46.96447863	      0.00000000	      0.00000000
     15.99142857	     -2.17500865	     -5.62171659	      5.95306163	      1.12286628	      0.93203430	      0.46735333	     11.49096109	      3.15360163	    -18.93679190	     16.99088226	     16.99088226	      9.26087577	     -3.02791491	     -3.77083522	     27.24550219	    -13.01595470	      0.98916706	     64.96965953	     64.96965953	     13.38120866	    -19.08244426	     16.26191657	     -9.48690492	      7.77780210	      3.78679936	      5.87984135	    -14.35660349	     -9.81179588	     30.86649091	     46.61284467	      0.00000000	      0.00000000	      9.22535844	     -8.82932220	      1.95023010	     61.14686518	     46.85430081	      0.00000000	      0.00000000
     16.00250000	     -2.11050543	     -5.60870721	      6.33557665	      1.12172318	      0.93250469	      0.46786623	     10.63166061	      3.34021997	    -19.03985620	     16.48884827	     16.48884827	      9.49092369	     -3.12609812	     -3.77309773	     28.67885995	    -12.83927748	      1.12487106	     63.77553587	     63.77553587	     13.31208753	    -19.05723606	     16.26356150	     -9.66374250	      7.67113316	      3.54711148	      8.30026379	    -14.63236964	     -9.61498263	     32.24133070	     46.55442105	      0.00000000	      0.00000000	      8.02065310	     -8.77146885	      2.41762781	     58.40103867	     46.77217452	      0.00000000	      0.00000000
     16.01357143	     -2.06471099	     -5.56412858	      6.68269746	      1.12045282	      0.93288204	      0.46824134	      9.79965229	      3.49179160	    -19.09445392	     15.99106550	     15.99106550	      9.70262814	     -3.26486367	     -3.94506016	     29.95813354	    -12.61845243	      1.14209876	     62.13178484	     62.13178484	     13.11818623	    -19.03520232	     16.18373831	     -9.73579434	      7.55802319	      4.04186480	     10.24460982	    -15.30694269	     -8.71596194	     33.56328291	     46.43567000	      0.00000000	      0.00000000	      8.07027616	     -8.08006278	      2.84588940	     52.96307806	     46.67114486	      0.00000000	      0.00000000
